<svg width="24" height="24" xmlns="http://www.w3.org/2000/svg" fill-rule="evenodd" clip-rule="evenodd"><path d="M24 24v-7c0-.265-.105-.52-.293-.707-.187-.188-.442-.293-.707-.293h-22c-.265 0-.52.105-.707.293-.188.187-.293.442-.293.707v7h1v-2h22v2h1zm-19-9v-1c0-.552.448-1 1-1h4c.552 0 1 .448 1 1v1h2v-1c0-.552.448-1 1-1h4c.552 0 1 .448 1 1v1h3v-4c0-.265-.105-.52-.293-.707-.187-.188-.442-.293-.707-.293h-18c-.265 0-.52.105-.707.293-.188.187-.293.442-.293.707v4h3zm-2-9c.552 0 1 .448 1 1s-.448 1-1 1-1-.448-1-1 .448-1 1-1zm14 0c.552 0 1 .448 1 1s-.448 1-1 1-1-.448-1-1 .448-1 1-1zm4 0c.552 0 1 .448 1 1s-.448 1-1 1-1-.448-1-1 .448-1 1-1zm-14 0c.552 0 1 .448 1 1s-.448 1-1 1-1-.448-1-1 .448-1 1-1zm5-4.751c-.303-.822-1.118-1.249-1.963-1.249-1.172 0-2.4.821-2.4 2.547 0 1.478 1.113 3.447 4.363 5.453 3.25-2.006 4.363-3.975 4.363-5.453 0-1.72-1.235-2.547-2.408-2.547-.841 0-1.651.425-1.955 1.249zm7 1.836c.552 0 1 .448 1 1s-.448 1-1 1-1-.448-1-1 .448-1 1-1zm-14-.085c.552 0 1 .448 1 1s-.448 1-1 1-1-.448-1-1 .448-1 1-1z"/></svg>